<svg width="24" height="18" viewBox="0 0 24 18" fill="none" xmlns="http://www.w3.org/2000/svg">
<g clip-path="url(#clip0_2145_3587)">
<path d="M0.0204544 13.6477C-0.020092 13.7101 0.0246487 13.7913 0.0987511 13.7913H4.70567L4.71196 13.8198C4.8343 14.3937 5.20201 14.8844 5.72003 15.1613L10.5947 17.7687C10.882 17.9228 11.2008 17.9998 11.5203 17.9998C11.8055 17.9998 12.0907 17.9381 12.3536 17.8145L18.2356 15.0489C18.7522 14.8053 19.1423 14.3417 19.301 13.7913H23.903C23.9771 13.7913 24.0219 13.7094 23.9813 13.6477L23.0438 12.0959L23.9855 10.5031C24.0246 10.4413 23.9799 10.3608 23.9065 10.3608C23.5689 10.3608 22.767 10.3587 21.912 10.3573L21.4947 12.7267H4.94125L2.65528 12.726L2.22744 10.356C1.32143 10.3573 0.448988 10.3594 0.0931568 10.3601C0.0197544 10.3601 -0.0242863 10.4406 0.014164 10.5024L0.955818 12.0952H0.957216L0.0204544 13.6477Z" fill="#D9291C"></path>
<path d="M4.59033 8.87451H19.387H19.6261H20.1056H21.3018L20.7726 11.874H19.136H18.6341H18.3803H5.57533H5.32995H4.87066H3.37394L2.83215 8.87451H3.89755H4.35055H4.59033Z" fill="#D9291C"></path>
<path d="M2.50118 4.48769L3.33797 8.02162H20.6639H20.6632L21.5042 4.45507C21.6713 3.66944 21.3266 2.86716 20.6471 2.45492C18.0892 0.902402 11.2865 -2.20332 3.37852 2.47851C2.68504 2.88937 2.332 3.69651 2.50118 4.48769Z" fill="#D9291C"></path>
</g>
<defs>
<clipPath id="clip0_2145_3587">
<rect width="24" height="18" fill="white" transform="matrix(-1 0 0 1 24 0)"></rect>
</clipPath>
</defs>
</svg>
