<?xml version="1.0" encoding="utf-8"?>
<!-- Generator: Adobe Illustrator 29.5.0, SVG Export Plug-In . SVG Version: 9.03 Build 0)  -->
<svg version="1.1" baseProfile="tiny" id="Capa_1" xmlns="http://www.w3.org/2000/svg" xmlns:xlink="http://www.w3.org/1999/xlink"
	 x="0px" y="0px" viewBox="0 0 24 24" overflow="visible" xml:space="preserve">
<path fill="#D92A1C" d="M13.6,21c-0.3,0.3-0.6,0.4-1,0.4s-0.7-0.1-1-0.4l-8.7-8.7c-0.1-0.1-0.2-0.3-0.3-0.5
	c-0.1-0.2-0.1-0.4-0.1-0.6V4.2c0-0.4,0.1-0.7,0.4-1c0.3-0.3,0.6-0.4,1-0.4H11c0.2,0,0.4,0,0.5,0.1C11.7,3,11.8,3.1,12,3.2l8.7,8.7
	c0.3,0.3,0.4,0.6,0.4,1c0,0.4-0.1,0.7-0.4,1L13.6,21z M6.4,7.8c0.3,0,0.6-0.1,0.8-0.3C7.4,7.3,7.5,7,7.5,6.7c0-0.3-0.1-0.6-0.3-0.8
	C7,5.6,6.7,5.5,6.4,5.5C6,5.5,5.7,5.6,5.5,5.8C5.3,6,5.2,6.3,5.2,6.7c0,0.3,0.1,0.6,0.3,0.8C5.7,7.7,6,7.8,6.4,7.8z"/>
</svg>
