<svg xmlns="http://www.w3.org/2000/svg" width="40" height="40" viewBox="0 0 40 40">
  <g id="Grupo_12160" data-name="Grupo 12160" transform="translate(-2380 -385)">
    <rect id="Rectángulo_1520" data-name="Rectángulo 1520" width="40" height="40" rx="4" transform="translate(2380 385)" fill="#fff"/>
    <g id="Grupo_12151" data-name="Grupo 12151" transform="translate(2390 395)">
      <path id="Trazado_5149" data-name="Trazado 5149" d="M23.635,18.5a4.777,4.777,0,0,0,1.824,2.462,2.886,2.886,0,0,0,3.756-.744,3.108,3.108,0,0,0,.8-2.677l3.087-.611a11.13,11.13,0,0,1-.118,4.378,5.7,5.7,0,0,1-4.174,2.028c-2.669,0-4.972-1.072-5.621-4.69Z" transform="translate(-12.437 -9.081)" fill="#da291c"/>
      <path id="Trazado_5150" data-name="Trazado 5150" d="M15.58,9.848a4.79,4.79,0,0,0,1.193-2.834,2.945,2.945,0,0,0-2.516-2.927,3,3,0,0,0-2.686.631l-2.066-2.4A10.794,10.794,0,0,1,13.3.232,5.709,5.709,0,0,1,17.12,2.883c1.335,2.345,1.574,4.9-1.193,7.281Z" transform="translate(-5.098 -0.124)" fill="#da291c"/>
      <path id="Trazado_5151" data-name="Trazado 5151" d="M15.38,20.917a4.625,4.625,0,0,0-3.018.371,2.969,2.969,0,0,0-1.241,3.667A3.048,3.048,0,0,0,13,27l-1.022,3.019A10.814,10.814,0,0,1,8.3,27.726a5.879,5.879,0,0,1,.356-4.678c1.337-2.346,3.4-3.834,6.814-2.6Z" transform="translate(-4.275 -10.728)" fill="#da291c"/>
      <path id="Trazado_5152" data-name="Trazado 5152" d="M35.464,6.178a3.439,3.439,0,0,1-.541,3.966,3.6,3.6,0,0,1-2.5,1.334s3.4-3.462-.3-5.7l1.913-1.019a4.591,4.591,0,0,1,1.425,1.422" transform="translate(-17.227 -2.55)" fill="#da291c"/>
      <path id="Trazado_5153" data-name="Trazado 5153" d="M32.585,0,30.753,1.089l.637,2.137L33.3,2.206l-.22-.682Z" transform="translate(-16.491 0)" fill="#da291c"/>
      <path id="Trazado_5154" data-name="Trazado 5154" d="M3.794,12.136A3.327,3.327,0,0,1,7.45,10.628a3.627,3.627,0,0,1,2.39,1.527S5.181,10.9,5.119,15.268L3.291,14.1a4.671,4.671,0,0,1,.5-1.962" transform="translate(-1.765 -5.669)" fill="#da291c"/>
      <path id="Trazado_5155" data-name="Trazado 5155" d="M1.055,18.708,0,19.908l1.849,1.06,1.506-1.622L1.526,18.175Z" transform="translate(0 -9.746)" fill="#da291c"/>
      <path id="Trazado_5156" data-name="Trazado 5156" d="M23.15,35.316a3.341,3.341,0,0,1-3.114-2.46A3.713,3.713,0,0,1,20.144,30s1.254,4.717,5.021,2.588l-.086,2.19a4.453,4.453,0,0,1-1.93.539" transform="translate(-10.616 -16.087)" fill="#da291c"/>
      <path id="Trazado_5157" data-name="Trazado 5157" d="M31.274,35.579l-.086,2.191.687.145,1.55.328-.012-2.153Z" transform="translate(-16.725 -19.079)" fill="#da291c"/>
    </g>
  </g>
</svg>
