<svg width="24" height="24" viewBox="0 0 24 24" fill="none" xmlns="http://www.w3.org/2000/svg">
<g id="Icono Chevron Up">
<path id="Vector" d="M11.999 14.6082C11.891 14.6082 11.7868 14.589 11.6863 14.5505C11.5858 14.5121 11.493 14.4502 11.4077 14.3649L6.94748 9.8999C6.80495 9.76058 6.73624 9.59957 6.74135 9.41687C6.74649 9.23419 6.82149 9.07042 6.96635 8.92555C7.10802 8.78388 7.27276 8.71305 7.46058 8.71305C7.6484 8.71305 7.81391 8.78306 7.95713 8.92307L12 12.9707L16.0631 8.9077C16.2031 8.76768 16.3644 8.70023 16.5471 8.70535C16.7298 8.71048 16.8936 8.78388 17.0385 8.92555C17.1801 9.07042 17.251 9.23676 17.251 9.42457C17.251 9.61239 17.1813 9.77596 17.042 9.91527L12.5923 14.3649C12.5057 14.4502 12.4138 14.5121 12.3165 14.5505C12.2192 14.589 12.1134 14.6082 11.999 14.6082Z" fill="#444444"/>
</g>
</svg>
