<svg width="160" height="15" viewBox="0 0 160 15" fill="none" xmlns="http://www.w3.org/2000/svg">
<g clip-path="url(#clip0_460_24067)">
<path d="M95.8472 12.653C92.9729 14.2855 92.014 10.668 92.014 10.668C92.014 10.668 91.4777 11.709 91.9327 12.8588C92.5968 14.5457 93.7344 14.7161 94.3079 14.7445C94.9696 14.7776 95.7799 14.3304 95.7799 14.3304L96.3046 14.4416L97.4864 14.6948L97.4771 13.0434L95.8449 12.6506L95.8472 12.653ZM90.9065 4.97319C90.9065 4.97319 90.2889 3.97713 89.0839 3.80205C87.3194 3.54653 86.6066 4.46214 86.2932 4.95662C85.9379 5.52445 85.9077 6.46136 85.9077 6.46136L85.5479 6.87066L84.7422 7.79101L86.1538 8.60252L87.3031 7.35804C87.3519 4.00552 90.9065 4.97082 90.9065 4.97082M96.1142 2.4724C98.9352 4.19006 96.3418 6.847 96.3418 6.847C96.3418 6.847 97.4957 6.80205 98.2479 5.82255C99.3438 4.39117 98.9236 3.30757 98.6612 2.78233C98.3571 2.18612 97.5769 1.69401 97.5746 1.69164L97.4051 1.16877L97.0267 0L95.6267 0.835173L96.1119 2.4724H96.1142ZM98.1597 6.49211C98.1597 6.49211 98.4267 7.56861 97.5468 8.54337C96.5623 9.6317 95.5083 9.55363 94.6794 9.11356C93.9225 8.71372 93.4906 7.76025 93.3444 7.38407C95.0927 5.64984 94.8767 3.80915 93.9155 2.11514C92.9218 0.364353 91.0017 0.0828076 91.0017 0.0828076C89.4159 0.511041 88.1041 1.68218 88.1041 1.68218L89.6806 3.52524C89.6806 3.52524 90.463 2.75158 91.7307 3.04259C93.1517 3.36672 93.609 4.33912 93.6508 5.28549C93.688 6.14669 93.1052 6.99606 92.8545 7.32019C90.5072 6.64353 89.0491 7.75315 88.0879 9.45189C87.0965 11.2003 87.8186 13.0386 87.8186 13.0386C88.9771 14.224 90.6256 14.7989 90.6256 14.7989L91.4057 12.485C91.4057 12.485 90.3562 12.1822 89.9685 10.9164C89.5343 9.50394 90.131 8.61199 90.9158 8.10331C91.6309 7.63722 92.6502 7.72949 93.0495 7.78864C93.6485 10.2043 95.3202 10.9401 97.2426 10.9401C99.165 10.9401 100.428 9.38565 100.428 9.38565C100.855 7.76971 100.519 6.02839 100.519 6.02839L98.162 6.49684L98.1597 6.49211ZM159.236 11.7279C159.236 12.9961 159.492 13.791 160 14.1175C159.814 14.4393 159.612 14.6191 159.385 14.7066C159.134 14.806 158.918 14.832 158.616 14.8202C158.296 14.8036 158.008 14.7019 157.755 14.4653C157.502 14.2263 157.33 13.9685 157.239 13.6916C157.04 14.0229 156.687 14.295 156.19 14.5055C155.688 14.7161 155.168 14.8226 154.625 14.8226C153.601 14.8226 152.798 14.5647 152.213 14.0513C151.625 13.5402 151.333 12.8139 151.333 11.8699C151.333 10.7673 151.748 9.90615 152.57 9.28628C153.397 8.66404 154.569 8.35173 156.088 8.35173C156.348 8.35173 156.657 8.39432 157.012 8.48423C157.012 7.36514 156.306 6.80442 154.892 6.80442C154.228 6.80442 153.65 6.89432 153.158 7.07177L152.854 7.19716C152.835 7.20662 152.816 7.21136 152.8 7.22082H152.796C152.796 7.22082 152.136 5.59069 153.743 5.12224C153.743 5.12224 154.36 4.9377 155.408 4.9377C156.856 4.9377 157.553 5.27839 158.226 5.93849C158.899 6.59621 159.238 7.85016 159.238 9.69085V11.7279H159.236ZM157.026 10.164C156.645 10.0883 156.364 10.0481 156.174 10.0481C154.423 10.0481 153.55 10.623 153.55 11.7705C153.55 12.627 154.04 13.0505 155.031 13.0505C156.359 13.0505 157.026 12.3833 157.026 11.0513V10.164ZM151.419 5.76814C151.642 5.38249 151.804 5.28076 151.804 5.28076C151.152 5.00867 150.627 4.9377 150.037 4.94243C149.009 4.95189 148.238 5.33281 147.613 6.02839V4.94953H145.398V14.8226H147.613V9.25552C147.613 8.57886 147.815 8.00867 148.215 7.54022C148.614 7.07413 149.232 6.83281 149.745 6.81625C150.437 6.79022 151.047 7.12618 151.303 7.31072C151.303 7.31072 151.07 6.37382 151.421 5.7705M141.876 12.5205C141.665 12.2413 141.556 11.7587 141.556 11.0797V6.73344H144.166V4.94716H141.556V2.19085L139.341 3.00946V4.94953H138.24L136.652 6.7358H139.339V11.7303C139.339 12.7192 139.594 13.4811 140.1 14.0181C140.609 14.5528 141.338 14.8226 142.283 14.8226C143.228 14.8226 143.968 14.7326 144.484 14.5552V12.511C144.022 12.7997 143.525 12.9464 142.993 12.9464C142.461 12.9464 142.088 12.8068 141.874 12.5229M137.008 4.94716H134.337L130.973 8.79416V0.0189274L128.756 1.04338V14.8155H130.973V11.4771L132.037 10.3462C132.037 10.3462 134.598 14.2713 134.69 14.4109C134.957 14.8249 135.45 14.8131 135.45 14.8131H137.586L133.597 8.74684L137.005 4.94479L137.008 4.94716ZM108.984 4.94243C110.361 4.94243 111.468 5.35647 112.302 6.17744C113.135 7.00079 113.551 8.05126 113.551 9.32177C113.551 9.59621 113.49 10.0079 113.367 10.5591H106.581C106.623 11.3162 106.883 11.9054 107.361 12.3265C107.841 12.75 108.487 12.9558 109.295 12.9558C109.604 12.9558 109.678 12.9913 110.152 12.8849C110.537 12.7973 111.001 12.5655 111.521 12.7642C111.798 12.8541 111.995 13.1285 112.158 13.3699C112.329 13.597 112.462 13.8667 112.462 13.8667C111.682 14.5008 110.518 14.8178 108.968 14.8178C107.519 14.8178 106.374 14.392 105.531 13.5426C104.689 12.6932 104.266 11.5079 104.266 9.98186C104.266 8.45583 104.73 7.27287 105.654 6.34306C106.581 5.41088 107.691 4.94479 108.984 4.94479M111.326 8.8888C111.173 7.49763 110.405 6.80205 109.021 6.80205C107.758 6.80205 106.968 7.49763 106.662 8.8888H111.326ZM122.954 4.94243C124.331 4.94243 125.436 5.35647 126.272 6.17744C127.105 7.00079 127.521 8.05126 127.521 9.32177C127.521 9.59621 127.458 10.0079 127.335 10.5591H120.549C120.59 11.3162 120.85 11.9054 121.329 12.3265C121.807 12.75 122.452 12.9558 123.263 12.9558C123.571 12.9558 123.643 12.9913 124.117 12.8849C124.502 12.7973 124.967 12.5655 125.487 12.7642C125.766 12.8541 125.963 13.1285 126.123 13.3699C126.295 13.597 126.427 13.8667 126.427 13.8667C125.647 14.5008 124.482 14.8178 122.931 14.8178C121.482 14.8178 120.337 14.392 119.497 13.5426C118.654 12.6932 118.234 11.5079 118.234 9.98186C118.234 8.45583 118.696 7.27287 119.622 6.34306C120.546 5.41088 121.656 4.94479 122.952 4.94479M125.297 8.8888C125.141 7.49763 124.372 6.80205 122.989 6.80205C121.726 6.80205 120.936 7.49763 120.63 8.8888H125.297ZM117.003 11.7397C117.003 12.9132 117.351 13.6136 118.048 13.836C117.704 14.489 117.119 14.8155 116.293 14.8155C115.287 14.8155 114.786 14.1128 114.786 12.7169V1.09069L117.003 0.0189274V11.7397Z" fill="#DA291C"/>
<path d="M0 14.7657V1.02441H4.98948C6.0691 1.02441 6.96066 1.20659 7.66648 1.57331C8.3723 1.94003 8.89934 2.44397 9.24528 3.08514C9.59122 3.72631 9.76536 4.44555 9.76536 5.24523C9.76536 6.04492 9.59819 6.70028 9.26386 7.33672C8.92952 7.97079 8.40944 8.48183 7.70363 8.86747C6.99781 9.25312 6.09232 9.44713 4.98716 9.44713H2.4634V14.7657H0ZM2.46572 7.40296H4.83392C5.69298 7.40296 6.31289 7.20896 6.69134 6.82331C7.06978 6.43766 7.26017 5.91006 7.26017 5.24287C7.26017 4.57568 7.06978 4.02915 6.69134 3.6435C6.31289 3.25785 5.69298 3.06385 4.83392 3.06385H2.46572V7.4006V7.40296Z" fill="#DA291C"/>
<path d="M10.8636 14.7657V5.02988H13.0599L13.2921 6.85638C13.6381 6.22941 14.1117 5.72783 14.7084 5.35401C15.3051 4.9802 16.0086 4.79565 16.8166 4.79565V7.4455H16.1224C15.5837 7.4455 15.1008 7.53067 14.6782 7.70102C14.2557 7.87136 13.9236 8.16474 13.6868 8.58351C13.45 9.00228 13.3316 9.5843 13.3316 10.3296V14.7657H10.8659H10.8636Z" fill="#DA291C"/>
<path d="M22.1915 15C21.2279 15 20.3735 14.7894 19.6305 14.373C18.8853 13.9542 18.3025 13.3651 17.8776 12.6056C17.455 11.8462 17.2414 10.9708 17.2414 9.97472C17.2414 8.97866 17.4504 8.07015 17.8683 7.28466C18.2862 6.49917 18.8644 5.88876 19.6027 5.44869C20.341 5.011 21.2117 4.79097 22.2124 4.79097C23.1503 4.79097 23.9792 5.00153 24.6966 5.41794C25.4164 5.83671 25.9783 6.40926 26.3822 7.1356C26.7862 7.86194 26.9882 8.66873 26.9882 9.56068C26.9882 9.705 26.9859 9.85406 26.9789 10.0126C26.972 10.1711 26.9627 10.3343 26.9511 10.5023H19.6886C19.7397 11.2618 19.9997 11.8556 20.4687 12.2886C20.9377 12.7216 21.5065 12.9369 22.1729 12.9369C22.6744 12.9369 23.0946 12.8233 23.4336 12.5938C23.7726 12.3643 24.028 12.0662 24.1951 11.6995H26.7003C26.5216 12.3146 26.222 12.8754 25.8041 13.3769C25.3862 13.8809 24.8731 14.276 24.2625 14.5646C23.6518 14.8533 22.9623 14.9976 22.1915 14.9976V15ZM22.21 6.83513C21.6064 6.83513 21.0747 7.00784 20.6127 7.35563C20.1506 7.70343 19.8558 8.22866 19.7257 8.93608H24.483C24.4459 8.29491 24.2137 7.78387 23.7888 7.40532C23.3639 7.02677 22.8392 6.83513 22.21 6.83513ZM21.5158 4.24444V2.47709L25.8691 0.0827637V2.12456L21.5158 4.24444Z" fill="#DA291C"/>
<path d="M32.2447 15C31.3973 15 30.652 14.8604 30.0112 14.5789C29.3704 14.2973 28.8549 13.9093 28.4695 13.4101C28.0841 12.9133 27.8519 12.3383 27.7753 11.683H30.2596C30.3362 12.0615 30.5452 12.3857 30.8865 12.6554C31.2278 12.9227 31.6666 13.0576 32.2052 13.0576C32.7439 13.0576 33.1386 12.9464 33.3893 12.724C33.6401 12.5016 33.7655 12.2461 33.7655 11.9574C33.7655 11.5386 33.5844 11.2547 33.2268 11.1033C32.8669 10.9543 32.3654 10.8052 31.7246 10.6609C31.3137 10.5686 30.8958 10.4574 30.4732 10.3273C30.0483 10.1972 29.6606 10.0292 29.3077 9.82572C28.9548 9.62225 28.6692 9.36199 28.4509 9.04023C28.2327 8.72083 28.1236 8.32335 28.1236 7.85253C28.1236 6.98896 28.4602 6.26262 29.1359 5.67351C29.8092 5.08439 30.7565 4.79102 31.9777 4.79102C33.1084 4.79102 34.0093 5.05837 34.6849 5.59543C35.3582 6.1325 35.7599 6.87067 35.8899 7.81467H33.5588C33.4172 7.09543 32.8855 6.73581 31.9591 6.73581C31.4971 6.73581 31.1395 6.82808 30.8911 7.01026C30.6404 7.19243 30.515 7.42193 30.515 7.69638C30.515 7.97083 30.7007 8.21452 31.0745 8.3825C31.4483 8.55048 31.9406 8.709 32.5581 8.85332C33.2268 9.00947 33.8398 9.18455 34.397 9.37382C34.9565 9.5631 35.4023 9.84464 35.7366 10.2185C36.071 10.5923 36.2382 11.1246 36.2382 11.8178C36.2498 12.4188 36.0965 12.9629 35.7761 13.448C35.4557 13.933 34.9937 14.3115 34.39 14.586C33.7864 14.8604 33.0736 14.9976 32.2517 14.9976L32.2447 15Z" fill="#DA291C"/>
<path d="M41.5875 14.7657C40.5868 14.7657 39.7835 14.5173 39.1798 14.0204C38.5762 13.5236 38.2743 12.6411 38.2743 11.3706V7.13086H36.6375V5.02991H38.2743L38.5646 2.42029H40.7401V5.02991H43.3219V7.13086H40.7401V11.3895C40.7401 11.8604 40.8399 12.1845 41.0396 12.3619C41.2392 12.5394 41.5829 12.6269 42.0704 12.6269H43.2638V14.7657H41.5875Z" fill="#DA291C"/>
<path d="M47.9631 15C47.1412 15 46.4679 14.8651 45.9408 14.5978C45.4138 14.3304 45.0214 13.9731 44.766 13.5283C44.5083 13.0836 44.3806 12.5938 44.3806 12.0567C44.3806 11.153 44.7265 10.4219 45.4207 9.85879C46.115 9.2957 47.1551 9.01415 48.5412 9.01415H50.9675V8.77756C50.9675 8.11037 50.7817 7.62062 50.4079 7.30595C50.0341 6.99128 49.5721 6.83513 49.0218 6.83513C48.5203 6.83513 48.0838 6.9558 47.7123 7.19712C47.3408 7.43845 47.1087 7.7957 47.0181 8.26652H44.6104C44.6755 7.55911 44.9076 6.94397 45.3139 6.42109C45.7179 5.89822 46.2426 5.49602 46.8835 5.21447C47.5243 4.93293 48.244 4.79333 49.0404 4.79333C50.4009 4.79333 51.4736 5.14113 52.256 5.83434C53.0385 6.52756 53.4308 7.50942 53.4308 8.77993V14.7657H51.332L51.0998 13.1948C50.8165 13.7176 50.4218 14.1506 49.9157 14.4913C49.4072 14.832 48.7571 15.0023 47.9608 15.0023L47.9631 15ZM48.5226 13.0386C49.2284 13.0386 49.7787 12.802 50.1688 12.3312C50.5611 11.8604 50.8072 11.2784 50.9094 10.5851H48.8105C48.1558 10.5851 47.6868 10.7058 47.4035 10.9471C47.1203 11.1884 46.981 11.4866 46.981 11.8391C46.981 12.2176 47.1226 12.5134 47.4035 12.7216C47.6868 12.9321 48.0583 13.0362 48.5203 13.0362L48.5226 13.0386Z" fill="#DA291C"/>
<path d="M55.0143 14.7657V5.02988H57.1921L57.4034 6.34534C57.7122 5.87452 58.1185 5.49834 58.627 5.21679C59.1331 4.93524 59.7205 4.79565 60.3892 4.79565C61.8658 4.79565 62.9129 5.37767 63.5282 6.54171C63.8742 6.00464 64.3408 5.58114 64.9236 5.26647C65.5087 4.95181 66.1472 4.79565 66.8414 4.79565C68.0858 4.79565 69.0447 5.1742 69.7111 5.93367C70.3798 6.69313 70.7141 7.80512 70.7141 9.26963V14.7657H68.2484V9.50622C68.2484 8.66868 68.0905 8.02752 67.7771 7.58272C67.4613 7.13793 66.9784 6.91553 66.3236 6.91553C65.6689 6.91553 65.1186 7.16395 64.7146 7.6608C64.3107 8.15764 64.1087 8.85086 64.1087 9.74045V14.7657H61.6429V9.50622C61.6429 8.66868 61.4827 8.02752 61.1623 7.58272C60.8419 7.13793 60.3474 6.91553 59.6787 6.91553C59.0101 6.91553 58.4946 7.16395 58.0906 7.6608C57.6866 8.15764 57.4847 8.85086 57.4847 9.74045V14.7657H55.0189H55.0143Z" fill="#DA291C"/>
<path d="M76.8761 15C75.952 15 75.1208 14.7847 74.3825 14.3517C73.6442 13.9187 73.0591 13.3201 72.6295 12.556C72.2 11.7894 71.9841 10.9045 71.9841 9.89665C71.9841 8.88876 72.2023 8.00154 72.6388 7.23734C73.0753 6.47078 73.6627 5.8722 74.4011 5.4416C75.1394 5.00863 75.9706 4.79333 76.8946 4.79333C77.8187 4.79333 78.6313 5.00863 79.3696 5.4416C80.108 5.87457 80.693 6.47315 81.1226 7.23734C81.5521 8.0039 81.768 8.88876 81.768 9.89665C81.768 10.9045 81.5521 11.7918 81.1226 12.556C80.693 13.3225 80.1056 13.9211 79.3603 14.3517C78.6151 14.7823 77.7885 15 76.8761 15ZM76.8761 12.8209C77.5192 12.8209 78.0764 12.5749 78.5524 12.0851C79.0283 11.5954 79.2652 10.8643 79.2652 9.89665C79.2652 8.92898 79.0283 8.19791 78.5524 7.70816C78.0764 7.21841 77.5238 6.97236 76.897 6.97236C76.2701 6.97236 75.6803 7.21841 75.2113 7.70816C74.7424 8.19791 74.5079 8.92898 74.5079 9.89665C74.5079 10.8643 74.7424 11.5954 75.2113 12.0851C75.6803 12.5749 76.2352 12.8209 76.8784 12.8209H76.8761Z" fill="#DA291C"/>
</g>
<defs>
<clipPath id="clip0_460_24067">
<rect width="160" height="15" fill="white"/>
</clipPath>
</defs>
</svg>
